<svg width="25" height="30" viewBox="0 0 25 30" fill="none" xmlns="http://www.w3.org/2000/svg">
<path d="M12.7759 0C15.9783 0 19.0496 1.27215 21.314 3.5366C23.5785 5.80104 24.8506 8.87229 24.8506 12.0747C24.8506 21.3083 17.0376 29.1213 12.7759 29.1213C8.51427 29.1213 0.701233 21.3083 0.701233 12.0747C0.701233 8.87229 1.97338 5.80104 4.23783 3.5366C6.50227 1.27215 9.57352 0 12.7759 0ZM12.7759 2.8411C10.327 2.8411 7.97843 3.81393 6.24679 5.54556C4.51516 7.27719 3.54234 9.62579 3.54234 12.0747C3.54234 18.8848 9.45894 26.2802 12.7759 26.2802C16.0929 26.2802 22.0095 18.8848 22.0095 12.0747C22.0095 9.62579 21.0367 7.27719 19.3051 5.54556C17.5734 3.81393 15.2248 2.8411 12.7759 2.8411ZM20.589 12.785C20.8163 12.785 21.0421 12.7963 21.2637 12.8205C21.3644 13.7686 21.2517 14.7272 20.9339 15.6261C20.6162 16.525 20.1013 17.3415 19.4271 18.0156C18.753 18.6898 17.9365 19.2046 17.0376 19.5224C16.1387 19.8402 15.1801 19.9529 14.232 19.8522C14.1374 18.9608 14.2313 18.0595 14.5076 17.2067C14.784 16.354 15.2366 15.5689 15.8361 14.9024C16.4356 14.236 17.1685 13.703 17.9873 13.3382C18.8062 12.9734 19.6926 12.7849 20.589 12.785ZM4.96289 12.785C5.8593 12.7849 6.74569 12.9734 7.56452 13.3382C8.38334 13.703 9.11629 14.236 9.71577 14.9024C10.3153 15.5689 10.7679 16.354 11.0442 17.2067C11.3206 18.0595 11.4145 18.9608 11.3199 19.8522C10.3718 19.9529 9.41315 19.8402 8.51424 19.5224C7.61533 19.2046 6.79888 18.6898 6.12471 18.0156C5.45053 17.3415 4.9357 16.525 4.61792 15.6261C4.30014 14.7272 4.18745 13.7686 4.28813 12.8205C4.50831 12.7963 4.7356 12.785 4.96289 12.785Z" fill="url(#paint0_linear)"/>
<defs>
<linearGradient id="paint0_linear" x1="4.25261" y1="-2.85205e-07" x2="24.8506" y2="29.1213" gradientUnits="userSpaceOnUse">
<stop stop-color="#2EC73D"/>
<stop offset="0.515625" stop-color="#7C64C2"/>
<stop offset="1" stop-color="#B31DB6"/>
</linearGradient>
</defs>
</svg>
